HIERARCHY
ROOT root
{
	OFFSET 0.000000 0.000000 0.000000
	CHANNELS 6 Xposition Yposition Zposition Zrotation Yrotation Xrotation
	JOINT lhip
	{
		OFFSET 0.058581 -0.082280 -0.017664
		CHANNELS 3 Zrotation Yrotation Xrotation
		JOINT lknee
		{
			OFFSET 0.043451 -0.386469 0.008037
			CHANNELS 3 Zrotation Yrotation Xrotation
			JOINT lankle
			{
				OFFSET -0.014790 -0.426874 -0.037428
				CHANNELS 3 Zrotation Yrotation Xrotation
				JOINT ltoe
				{
					OFFSET 0.041054 -0.060286 0.122042
					CHANNELS 3 Zrotation Yrotation Xrotation
					End Site
					{
						OFFSET 0.000000 0.000000 0.000000
					}
				}
			}
		}
	}
	JOINT rhip
	{
		OFFSET -0.060310 -0.090513 -0.013543
		CHANNELS 3 Zrotation Yrotation Xrotation
		JOINT rknee
		{
			OFFSET -0.043257 -0.383688 -0.004843
			CHANNELS 3 Zrotation Yrotation Xrotation
			JOINT rankle
			{
				OFFSET 0.019056 -0.420046 -0.034562
				CHANNELS 3 Zrotation Yrotation Xrotation
				JOINT rtoe
				{
					OFFSET -0.034840 -0.062106 0.130323
					CHANNELS 3 Zrotation Yrotation Xrotation
					End Site
					{
						OFFSET 0.000000 0.000000 0.000000
					}
				}
			}
		}
	}
	JOINT lowerback
	{
		OFFSET 0.004439 0.124404 -0.038385
		CHANNELS 3 Zrotation Yrotation Xrotation
		JOINT upperback
		{
			OFFSET 0.004488 0.137956 0.026820
			CHANNELS 3 Zrotation Yrotation Xrotation
			JOINT chest
			{
				OFFSET -0.002265 0.056032 0.002855
				CHANNELS 3 Zrotation Yrotation Xrotation
				JOINT lowerneck
				{
					OFFSET -0.013390 0.211636 -0.033468
					CHANNELS 3 Zrotation Yrotation Xrotation
					JOINT upperneck
					{
						OFFSET 0.010113 0.088937 0.050410
						CHANNELS 3 Zrotation Yrotation Xrotation
						End Site
						{
							OFFSET 0.000000 0.000000 0.000000
						}
					}
				}
				JOINT lclavicle
				{
					OFFSET 0.071702 0.114000 -0.018898
					CHANNELS 3 Zrotation Yrotation Xrotation
					JOINT lshoulder
					{
						OFFSET 0.122921 0.045205 -0.019046
						CHANNELS 3 Zrotation Yrotation Xrotation
						JOINT lelbow
						{
							OFFSET 0.255332 -0.015649 -0.022946
							CHANNELS 3 Zrotation Yrotation Xrotation
							JOINT lwrist
							{
								OFFSET 0.265709 0.012698 -0.007375
								CHANNELS 3 Zrotation Yrotation Xrotation
								End Site
								{
									OFFSET 0.000000 0.000000 0.000000
								}
							}
						}
					}
				}
				JOINT rclavicle
				{
					OFFSET -0.082954 0.112472 -0.023707
					CHANNELS 3 Zrotation Yrotation Xrotation
					JOINT rshoulder
					{
						OFFSET -0.113228 0.046853 -0.008472
						CHANNELS 3 Zrotation Yrotation Xrotation
						JOINT relbow
						{
							OFFSET -0.260127 -0.014369 -0.031269
							CHANNELS 3 Zrotation Yrotation Xrotation
							JOINT rwrist
							{
								OFFSET -0.269108 0.006794 -0.006027
								CHANNELS 3 Zrotation Yrotation Xrotation
								End Site
								{
									OFFSET 0.000000 0.000000 0.000000
								}
							}
						}
					}
				}
			}
		}
	}
}
MOTION
Frames: 11
Frame Time: 0.033333
-2.123610 0.755681 1.011574 89.492220 -0.911235 86.152834 3.867146 -1.567750 -7.849604 -3.945153 -5.494738 16.151196 2.675585 6.635163 -10.179987 0.000000 -0.000000 0.000000 3.850175 -2.672872 2.664863 -1.752864 -0.794488 2.900631 -1.164403 -7.390584 -7.845367 0.000000 -0.000000 0.000000 -4.649554 4.945675 6.798223 0.937129 -4.943157 17.619326 1.171889 0.269142 -6.002946 -0.962462 1.639211 -4.433244 5.616966 -5.044267 -21.695012 -29.731252 -13.135603 2.802297 -51.152425 -8.083406 7.017303 10.992370 -17.331746 -12.249036 -9.797003 -5.749800 4.867204 30.912710 20.208760 8.296275 49.773192 8.616848 11.371095 -10.725535 24.631337 -3.425249 5.449693 6.550722 9.478376 
-2.125656 0.754691 1.011309 88.951161 -1.076156 86.056645 3.823820 -1.341861 -7.623537 -3.952377 -5.422931 15.799954 2.533502 6.685037 -10.087866 0.000000 -0.000000 0.000000 3.657066 -2.351305 2.547516 -1.644254 -0.841351 3.030165 -1.093751 -7.043663 -7.806962 0.000000 -0.000000 0.000000 -4.823905 4.796445 6.572512 1.192537 -4.911272 18.051061 1.424539 0.084967 -6.081216 -1.157218 2.103211 -4.936698 5.181826 -4.799705 -21.781396 -29.357622 -13.943044 2.604164 -51.208349 -9.378439 6.626550 11.694955 -18.319759 -13.716453 -8.145742 -6.463421 4.402148 30.803854 20.707593 8.456372 49.400806 9.435368 10.924485 -11.402731 24.584041 -4.740079 4.529203 6.854682 9.451937 
-2.127598 0.753287 1.011127 88.946478 -1.035372 85.874807 4.042364 -1.270312 -7.412860 -3.950491 -5.317604 15.508312 2.449470 6.339758 -10.008017 0.000000 -0.000000 0.000000 3.719089 -2.499459 2.434847 -1.534184 -1.019778 3.320996 -1.166450 -6.744989 -7.913847 0.000000 -0.000000 0.000000 -4.892240 4.535497 7.205925 1.407244 -5.304341 17.558374 1.796813 0.009847 -6.201462 -1.281759 2.513823 -5.426723 4.801294 -4.478020 -21.457125 -29.132357 -14.611568 2.415491 -51.148697 -10.275797 6.415173 12.471290 -19.440964 -14.557136 -6.494740 -6.991944 3.581778 31.064363 20.782388 8.431702 48.924441 10.031322 10.595512 -11.680689 24.321286 -5.074757 4.193949 7.065035 9.687089 
-2.127475 0.752169 1.011597 88.784218 -1.145716 85.717865 3.841409 -1.017586 -6.260582 -3.433663 -5.615315 13.773699 2.306376 6.020146 -9.627594 0.000000 -0.000000 0.000000 3.673032 -2.537924 2.607562 -1.562662 -1.127691 3.328563 -1.100071 -6.518213 -7.842462 0.000000 -0.000000 0.000000 -5.181850 4.387663 6.712676 1.688111 -5.451299 18.115675 2.056663 -0.110736 -6.520292 -1.182475 2.917418 -4.604749 4.794570 -4.225111 -21.590263 -29.210175 -15.729327 2.523759 -50.659806 -11.212805 6.284755 13.164551 -19.762735 -16.001253 -5.880925 -7.110777 3.648387 31.573557 21.380288 8.888519 48.503416 10.326415 10.362543 -12.386120 23.590159 -6.231093 4.033827 6.815483 9.928020 
-2.127380 0.751292 1.012142 88.714429 -1.432944 85.979277 3.269493 -1.015306 -5.372350 -2.674642 -6.020480 11.551264 2.209770 6.081446 -8.835743 0.000000 -0.000000 0.000000 3.496427 -2.421045 2.209923 -1.689611 -1.201863 3.483726 -1.038732 -6.553671 -7.865718 0.000000 -0.000000 0.000000 -5.518928 4.227998 6.068496 1.856169 -5.506852 18.271649 2.213539 -0.197517 -6.864829 -0.979247 2.885959 -3.874465 4.987126 -3.981407 -20.956839 -28.908819 -16.198866 2.184518 -50.594660 -12.266770 6.570196 13.289850 -19.829243 -16.589426 -5.904147 -7.409005 4.021399 31.723594 21.574217 8.970559 48.621416 10.520144 10.523997 -12.781744 22.591018 -6.822288 4.048136 7.017928 10.344935 
-2.127260 0.750279 1.012821 88.788825 -1.608770 86.129788 2.783824 -1.008006 -4.648371 -1.946437 -6.338925 9.809789 2.201122 6.191177 -8.180223 0.000000 -0.000000 0.000000 3.450283 -2.284490 2.040678 -1.810481 -1.183695 3.493664 -0.980284 -6.748121 -7.887992 0.000000 -0.000000 0.000000 -5.601823 4.070478 5.403424 1.920704 -5.558371 18.492111 2.199380 -0.331208 -6.814098 -0.756695 2.717747 -3.490767 5.132875 -4.011773 -20.302320 -28.564587 -16.431457 1.727543 -50.596866 -13.191250 6.762364 13.310394 -19.828702 -16.923760 -6.291942 -7.237456 4.192133 31.535154 21.492525 8.802529 48.937568 10.873826 10.805562 -12.678134 22.053524 -6.698402 4.309212 6.824386 10.759818 
-2.126382 0.748847 1.013735 89.136925 -1.766834 86.215681 2.397016 -1.056444 -3.792864 -1.280195 -6.646515 7.999476 2.053528 6.067670 -7.588215 0.000000 -0.000000 0.000000 3.380649 -2.338650 1.992814 -1.839462 -1.270686 3.514837 -0.852632 -7.027410 -8.183527 0.000000 -0.000000 0.000000 -5.626555 3.838308 4.697563 2.023552 -5.609608 18.514749 2.215774 -0.405128 -6.726958 -0.523348 2.540317 -2.523375 5.301797 -4.093602 -19.580906 -28.384334 -16.840102 1.591646 -50.624284 -14.176564 6.890085 13.437973 -20.118456 -17.095976 -6.305179 -7.123311 4.308829 31.058900 21.408820 8.705992 49.495452 10.555680 11.220822 -12.467342 22.275768 -6.290139 4.441710 6.586391 10.452313 
-2.126236 0.747124 1.014037 89.564756 -1.863402 86.272378 2.384023 -1.063355 -3.336614 -1.139011 -7.132198 6.825493 1.886103 5.975682 -7.212796 0.000000 -0.000000 0.000000 3.445835 -2.313422 1.931675 -1.971795 -1.626852 3.565198 -0.762525 -7.258687 -8.766349 0.000000 -0.000000 0.000000 -5.545832 3.472512 4.995325 2.053349 -5.527571 17.539424 2.256688 -0.355139 -6.676342 -0.348896 2.116806 -1.798011 5.420277 -3.980675 -18.798270 -28.405441 -16.796070 1.205701 -50.794283 -14.688494 7.328722 13.536776 -20.901687 -16.959222 -5.769604 -7.130209 3.835181 30.898374 20.891660 8.580172 49.793838 10.164527 11.755054 -11.920318 22.853570 -5.729837 4.523956 6.419857 9.696986 
-2.126222 0.745517 1.013616 90.182876 -1.930568 86.347968 2.545893 -1.134754 -3.629817 -1.362376 -7.437361 7.055849 1.610455 5.531203 -7.227387 0.000000 -0.000000 0.000000 3.544785 -2.360537 1.854137 -2.042340 -1.966949 3.640576 -0.943640 -7.462496 -9.042552 0.000000 -0.000000 0.000000 -5.454953 3.248250 5.223481 2.174227 -5.564626 17.091539 2.317412 -0.303784 -6.568357 -0.333110 2.053079 -1.857350 5.587348 -4.213882 -18.473903 -28.535784 -16.781967 0.980473 -50.956138 -15.126645 7.516451 13.525055 -22.487190 -16.787711 -5.451614 -7.383969 3.491938 30.816373 20.435508 8.424613 49.875575 9.792473 11.899542 -11.462813 23.644986 -4.870832 4.848496 6.618200 9.771219 
-2.126281 0.743712 1.012909 90.709441 -2.032073 86.136765 2.704350 -1.455311 -4.268030 -1.832788 -7.336630 8.544303 1.544375 5.311103 -7.587223 0.000000 -0.000000 0.000000 3.566774 -2.394285 1.958360 -2.053790 -2.172204 4.027431 -1.098709 -7.576812 -9.443372 0.000000 -0.000000 0.000000 -5.354248 3.324908 5.757118 2.218329 -5.457063 16.679865 2.463719 -0.372644 -6.427475 -0.216625 1.736334 -1.984744 5.812274 -4.561404 -18.245854 -28.592933 -17.130626 1.390023 -51.138554 -15.455799 7.549502 13.562246 -24.153614 -16.283617 -5.318958 -7.892192 2.922472 30.734160 20.550382 8.833338 49.978814 9.570379 11.774492 -11.507929 23.900401 -4.811761 4.822540 6.874405 8.975055 
-2.126072 0.741774 1.011796 91.696892 -1.894037 85.737542 3.255621 -1.933476 -5.694462 -2.765658 -7.147655 11.794506 1.597045 4.962971 -8.542626 0.000000 -0.000000 0.000000 3.749728 -2.805479 2.486257 -1.912042 -2.508332 3.971660 -1.447298 -7.720360 -9.570102 0.000000 -0.000000 0.000000 -5.056460 3.598980 6.444815 2.340327 -5.599277 16.292126 2.657453 -0.445979 -5.894836 0.127035 1.367579 -2.396432 6.058180 -5.205744 -18.332837 -28.741602 -17.313836 1.694501 -51.359909 -15.919889 7.501570 13.234274 -25.894195 -15.296516 -5.128964 -7.958683 2.279985 30.529475 20.486660 8.710948 50.160550 9.352064 11.432204 -11.575709 23.930464 -4.748945 4.816679 6.568707 8.069937 
